<?xml version="1.0" encoding="UTF-8"?>
<svg width="14px" height="14px" viewBox="0 0 14 14" version="1.1" xmlns="http://www.w3.org/2000/svg" xmlns:xlink="http://www.w3.org/1999/xlink">
    <!-- Generator: Sketch 60.1 (88133) - https://sketch.com -->
    <title>001-twitter</title>
    <desc>Created with Sketch.</desc>
    <g id="Page-1" stroke="none" stroke-width="1" fill="none" fill-rule="evenodd">
        <g id="Author-Articles" transform="translate(-1093.000000, -268.000000)" fill="#CFD8DC" fill-rule="nonzero">
            <g id="About" transform="translate(135.000000, 86.000000)">
                <g id="Author" transform="translate(741.000000, 112.000000)">
                    <g id="001-twitter" transform="translate(217.000000, 70.000000)">
                        <path d="M12.5228826,0 L1.13850451,0 C0.51246878,0 0,0.51246878 0,1.13850451 L0,12.5230493 C0,13.1489183 0.51246878,13.6613871 1.13850451,13.6613871 L12.5228826,13.6613871 C13.1489183,13.6613871 13.6613871,13.1489183 13.6613871,12.5228826 L13.6613871,1.13850451 C13.6613871,0.51246878 13.1489183,0 12.5228826,0 Z M12.5228826,12.5228826 L1.13850451,12.5228826 L1.13850451,1.13850451 L12.5228826,1.13850451 L12.5228826,12.5228826 Z" id="Shape"></path>
                        <path d="M9.4417328,9.89526684 C9.21496579,10.1215336 8.91475547,10.2460069 8.5955673,10.2460069 C7.93641205,10.2460069 7.3998624,9.7094573 7.3998624,9.05030205 L7.3998624,5.69218902 L9.67687142,5.69218902 L9.67687142,4.55368451 L7.3998624,4.55368451 L7.3998624,2.27684226 L6.26152466,2.27684226 L6.26152466,4.55368451 L4.55385128,4.55368451 L4.55385128,5.69218902 L6.26152466,5.69218902 L6.26152466,9.0503354 C6.26152466,10.3389284 7.30644066,11.3845448 8.5955673,11.3845448 C9.24038077,11.3845448 9.8235579,11.1227571 10.2460403,10.7008084 L9.4417328,9.89526684 Z" id="Shape"></path>
                    </g>
                </g>
            </g>
        </g>
    </g>
</svg>