<?xml version="1.0" encoding="UTF-8"?>
<svg width="14px" height="14px" viewBox="0 0 14 14" version="1.1" xmlns="http://www.w3.org/2000/svg" xmlns:xlink="http://www.w3.org/1999/xlink">
    <!-- Generator: Sketch 60.1 (88133) - https://sketch.com -->
    <title>005-instagram</title>
    <desc>Created with Sketch.</desc>
    <g id="Page-1" stroke="none" stroke-width="1" fill="none" fill-rule="evenodd">
        <g id="Author-Articles" transform="translate(-1122.000000, -268.000000)" fill="#CFD8DC" fill-rule="nonzero">
            <g id="About" transform="translate(135.000000, 86.000000)">
                <g id="Author" transform="translate(741.000000, 112.000000)">
                    <g id="005-instagram" transform="translate(246.000000, 70.000000)">
                        <path d="M10.2462071,0 L3.41551353,0 C1.53723957,0 0.000166764979,1.53707281 0.000166764979,3.41534677 L0.000166764979,10.2463738 C0.000166764979,12.1241475 1.53723957,13.6617206 3.41551353,13.6617206 L10.2462071,13.6617206 C12.124481,13.6617206 13.6615538,12.1241475 13.6615538,10.2463738 L13.6615538,3.41534677 C13.6615538,1.53707281 12.124481,0 10.2462071,0 Z M12.5230493,10.2463738 C12.5230493,11.5015138 11.5020474,12.5232161 10.2462071,12.5232161 L3.41551353,12.5232161 C2.16020683,12.5232161 1.13867128,11.5015138 1.13867128,10.2463738 L1.13867128,3.41534677 C1.13867128,2.1598733 2.16020683,1.13850451 3.41551353,1.13850451 L10.2462071,1.13850451 C11.5020474,1.13850451 12.5230493,2.1598733 12.5230493,3.41534677 L12.5230493,10.2463738 Z" id="Shape"></path>
                        <circle id="Oval" cx="10.5313752" cy="3.13067895" r="1"></circle>
                        <path d="M6.8308603,3.41534677 C4.94421474,3.41534677 3.41551353,4.94421474 3.41551353,6.83069353 C3.41551353,8.71647191 4.94421474,10.2463738 6.8308603,10.2463738 C8.71697221,10.2463738 10.2462071,8.71647191 10.2462071,6.83069353 C10.2462071,4.94421474 8.71697221,3.41534677 6.8308603,3.41534677 Z M6.8308603,9.10786932 C5.57348571,9.10786932 4.55401804,8.08840165 4.55401804,6.83069353 C4.55401804,5.57298541 5.57348571,4.55385128 6.8308603,4.55385128 C8.08823488,4.55385128 9.10770255,5.57298541 9.10770255,6.83069353 C9.10770255,8.08840165 8.08823488,9.10786932 6.8308603,9.10786932 Z" id="Shape"></path>
                    </g>
                </g>
            </g>
        </g>
    </g>
</svg>