<?xml version="1.0" encoding="UTF-8"?>
<svg width="7px" height="4px" viewBox="0 0 7 4" version="1.1" xmlns="http://www.w3.org/2000/svg" xmlns:xlink="http://www.w3.org/1999/xlink">
    <!-- Generator: Sketch 60.1 (88133) - https://sketch.com -->
    <title>left-arrow</title>
    <desc>Created with Sketch.</desc>
    <g id="Page-1" stroke="none" stroke-width="1" fill="none" fill-rule="evenodd">
        <g id="Author-Articles" transform="translate(-913.000000, -25.000000)" fill="#000000" fill-rule="nonzero">
            <g id="Header">
                <g id="Categories">
                    <g id="left-arrow" transform="translate(916.500000, 27.000000) rotate(-90.000000) translate(-916.500000, -27.000000) translate(915.000000, 24.000000)">
                        <path d="M2.64761905,5.49047619 C2.68571429,5.52857143 2.73333333,5.54761905 2.78571429,5.54761905 C2.83809524,5.54761905 2.88571429,5.52857143 2.92380952,5.49047619 C3,5.41428571 3,5.29047619 2.92380952,5.21428571 L0.495238095,2.78571429 L2.92380952,0.357142857 C3,0.280952381 3,0.157142857 2.92380952,0.080952381 C2.84761905,0.00476190476 2.72380952,0.00476190476 2.64761905,0.080952381 L0.0761904762,2.64761905 C1.33573708e-15,2.72380952 1.33573708e-15,2.84761905 0.0761904762,2.92380952 L2.64761905,5.49047619 L2.64761905,5.49047619 Z" id="Shape"></path>
                    </g>
                </g>
            </g>
        </g>
    </g>
</svg>