<?xml version="1.0" encoding="UTF-8"?>
<svg width="14px" height="14px" viewBox="0 0 14 14" version="1.1" xmlns="http://www.w3.org/2000/svg" xmlns:xlink="http://www.w3.org/1999/xlink">
    <!-- Generator: Sketch 60.1 (88133) - https://sketch.com -->
    <title>linkedin</title>
    <desc>Created with Sketch.</desc>
    <g id="Page-1" stroke="none" stroke-width="1" fill="none" fill-rule="evenodd">
        <g id="Author-Articles" transform="translate(-1151.000000, -268.000000)" fill="#CFD8DC" fill-rule="nonzero">
            <g id="About" transform="translate(135.000000, 86.000000)">
                <g id="Author" transform="translate(741.000000, 112.000000)">
                    <g id="linkedin" transform="translate(275.000000, 70.000000)">
                        <path d="M12.9742971,13.7083333 L1.02695454,13.6613871 C0.460069113,13.6606974 0.000689642403,13.0899347 0,12.5230493 L0,1.02570292 C0.00137851911,0.459306342 0.460556703,0.00068779081 1.02695454,0 L12.9742971,0 C13.5402062,0.00137607688 13.9986239,0.459793809 14,1.02570292 L14,12.5232161 C13.9993122,13.0896139 13.5406937,13.7069548 12.9742971,13.7083333 Z M1.02695454,1.00129632 C1.0127839,1.00129632 1.00129632,1.0127839 1.00129632,1.02695454 L1.02695454,12.5232161 L12.9999553,12.5232161 C13.0252832,12.1936923 13.0252832,12.5232161 12.9999553,12.6551483 L12.9999553,1.02570292 C12.9999553,1.01153228 12.9884677,1.0000447 12.9742971,1.0000447 L1.02695454,1.00129632 Z" id="Shape"></path>
                        <rect id="Rectangle" x="3.62068966" y="5.79310345" width="1.20689655" height="4.5862069"></rect>
                        <rect id="Rectangle" x="5.79310345" y="5.79310345" width="1.20689655" height="4.5862069"></rect>
                        <rect id="Rectangle" x="9.45402299" y="7.96551724" width="1.16666667" height="2.4137931"></rect>
                        <circle id="Oval" cx="4.22413793" cy="4.46551724" r="1"></circle>
                        <path d="M7,6.0817865 C7,6.0817865 7.75944028,5.6146841 8.84677786,5.86509453 C9.94981933,6.11613256 10.553477,6.93626132 10.6206897,7.96551724 L9.45402299,8.19190592 C9.45402299,7.35845966 8.96487114,6.94204768 8.26510565,6.94204768 C7.56534016,6.94204768 7,7.61796758 7,8.44827586 L7,6.0817865 Z" id="Path"></path>
                    </g>
                </g>
            </g>
        </g>
    </g>
</svg>