<?xml version="1.0" encoding="UTF-8"?>
<svg width="10px" height="10px" viewBox="0 0 10 10" version="1.1" xmlns="http://www.w3.org/2000/svg" xmlns:xlink="http://www.w3.org/1999/xlink">
    <!-- Generator: Sketch 60.1 (88133) - https://sketch.com -->
    <title>magnifying-glass</title>
    <desc>Created with Sketch.</desc>
    <g id="Page-1" stroke="none" stroke-width="1" fill="none" fill-rule="evenodd">
        <g id="Author-Articles" transform="translate(-253.000000, -21.000000)" fill="#000000" fill-rule="nonzero">
            <g id="Header">
                <g id="Categories">
                    <g id="Search" transform="translate(135.000000, 12.000000)">
                        <g id="magnifying-glass" transform="translate(118.000000, 9.000000)">
                            <path d="M9.87755102,9.28979592 L7.47346939,6.88571429 C8.06938776,6.15918367 8.42857143,5.22857143 8.42857143,4.21428571 C8.42857143,1.8877551 6.54081633,0 4.21428571,0 C1.88571429,0 0,1.8877551 0,4.21428571 C0,6.54081633 1.88571429,8.42857143 4.21428571,8.42857143 C5.22857143,8.42857143 6.15714286,8.07142857 6.88367347,7.4755102 L9.2877551,9.87755102 C9.45102041,10.0408163 9.71428571,10.0408163 9.87755102,9.87755102 C10.0408163,9.71632653 10.0408163,9.45102041 9.87755102,9.28979592 Z M4.21428571,7.58979592 C2.35102041,7.58979592 0.836734694,6.0755102 0.836734694,4.21428571 C0.836734694,2.35306122 2.35102041,0.836734694 4.21428571,0.836734694 C6.0755102,0.836734694 7.59183673,2.35306122 7.59183673,4.21428571 C7.59183673,6.0755102 6.0755102,7.58979592 4.21428571,7.58979592 Z" id="Shape"></path>
                        </g>
                    </g>
                </g>
            </g>
        </g>
    </g>
</svg>